HIERARCHY
ROOT hip
{
	OFFSET 0.000000 0.000000 0.000000
	CHANNELS 6 Xposition Yposition Zposition Zrotation Yrotation Xrotation 
	JOINT lhipjoint
	{
		OFFSET 0.000000 0.000000 0.000000
		CHANNELS 3 Zrotation Yrotation Xrotation
		JOINT lfemur
		{
			OFFSET 1.363060 -1.794630 0.839290
			CHANNELS 3 Zrotation Yrotation Xrotation
			JOINT ltibia
			{
				OFFSET 2.448110 -6.726130 0.000000
				CHANNELS 3 Zrotation Yrotation Xrotation
				JOINT lfoot
				{
					OFFSET 2.562200 -7.039590 0.000000
					CHANNELS 3 Zrotation Yrotation Xrotation
					JOINT ltoes
					{
						OFFSET 0.157640 -0.433110 2.322550
						CHANNELS 3 Zrotation Yrotation Xrotation
						End Site
						{
							OFFSET 0.000000 0.000000 0.000000
						}
					}
				}
			}
		}
	}
	JOINT rhipjoint
	{
		OFFSET 0.000000 0.000000 0.000000
		CHANNELS 3 Zrotation Yrotation Xrotation
		JOINT rfemur
		{
			OFFSET -1.305520 -1.794630 0.839290
			CHANNELS 3 Zrotation Yrotation Xrotation
			JOINT rtibia
			{
				OFFSET -2.542530 -6.985550 0.000000
				CHANNELS 3 Zrotation Yrotation Xrotation
				JOINT rfoot
				{
					OFFSET -2.568260 -7.056230 0.000000
					CHANNELS 3 Zrotation Yrotation Xrotation
					JOINT rtoes
					{
						OFFSET -0.164730 -0.452590 2.363150
						CHANNELS 3 Zrotation Yrotation Xrotation
						End Site
						{
							OFFSET 0.000000 0.000000 0.000000
						}
					}
				}
			}
		}
	}
	JOINT lowerback
	{
		OFFSET 0.000000 0.000000 0.000000
		CHANNELS 3 Zrotation Yrotation Xrotation
		JOINT upperback
		{
			OFFSET 0.028270 2.035590 -0.193380
			CHANNELS 3 Zrotation Yrotation Xrotation
			JOINT thorax
			{
				OFFSET 0.056720 2.048850 -0.042750
				CHANNELS 3 Zrotation Yrotation Xrotation
				JOINT lowerneck
				{
					OFFSET 0.000000 0.000000 0.000000
					CHANNELS 3 Zrotation Yrotation Xrotation
					JOINT upperneck
					{
						OFFSET -0.054170 1.746240 0.172020
						CHANNELS 3 Zrotation Yrotation Xrotation
						JOINT head
						{
							OFFSET 0.104070 1.761360 -0.123970
							CHANNELS 3 Zrotation Yrotation Xrotation
							End Site
							{
								OFFSET 0.000000 0.000000 0.000000
							}
						}
					}
				}
				JOINT lclavicle
				{
					OFFSET 0.000000 0.000000 0.000000
					CHANNELS 3 Zrotation Yrotation Xrotation
					JOINT lhumerus
					{
						OFFSET 3.362410 1.200890 -0.311210
						CHANNELS 3 Zrotation Yrotation Xrotation
						JOINT lradius
						{
							OFFSET 4.983000 -0.000000 -0.000000
							CHANNELS 3 Zrotation Yrotation Xrotation
							JOINT lwrist
							{
								OFFSET 3.483560 -0.000000 -0.000000
								CHANNELS 3 Zrotation Yrotation Xrotation
								JOINT lhand
								{
									OFFSET 0.000000 0.000000 0.000000
									CHANNELS 3 Zrotation Yrotation Xrotation
									JOINT lfingers
									{
										OFFSET 0.715260 -0.000000 -0.000000
										CHANNELS 3 Zrotation Yrotation Xrotation
										End Site
										{
											OFFSET 0.000000 0.000000 0.000000
										}
									}
								}
								JOINT lthumb
								{
									OFFSET 0.000000 0.000000 0.000000
									CHANNELS 3 Zrotation Yrotation Xrotation
									End Site
									{
										OFFSET 0.000000 0.000000 0.000000
									}
								}
							}
						}
					}
				}
				JOINT rclavicle
				{
					OFFSET 0.000000 0.000000 0.000000
					CHANNELS 3 Zrotation Yrotation Xrotation
					JOINT rhumerus
					{
						OFFSET -3.136600 1.374050 -0.404650
						CHANNELS 3 Zrotation Yrotation Xrotation
						JOINT rradius
						{
							OFFSET -5.241900 -0.000000 -0.000000
							CHANNELS 3 Zrotation Yrotation Xrotation
							JOINT rwrist
							{
								OFFSET -3.444170 -0.000000 -0.000000
								CHANNELS 3 Zrotation Yrotation Xrotation
								JOINT rhand
								{
									OFFSET 0.000000 0.000000 0.000000
									CHANNELS 3 Zrotation Yrotation Xrotation
									JOINT rfingers
									{
										OFFSET -0.622530 -0.000000 -0.000000
										CHANNELS 3 Zrotation Yrotation Xrotation
										End Site
										{
											OFFSET 0.000000 0.000000 0.000000
										}
									}
								}
								JOINT rthumb
								{
									OFFSET 0.000000 0.000000 0.000000
									CHANNELS 3 Zrotation Yrotation Xrotation
									End Site
									{
										OFFSET 0.000000 0.000000 0.000000
									}
								}
							}
						}
					}
				}
			}
		}
	}
}
MOTION
Frames: 7
Frame Time: 0.008333
-0.400853 17.139429 -2.191216 -171.575421 27.541602 171.204184 -1.920296 2.289987 1.728387 5.405822 -8.506439 -14.779696 2.716676 10.682637 30.774110 -0.019362 3.266295 8.916282 3.167700 -10.961700 -32.150900 -0.590366 -4.237364 1.561274 23.498065 -5.299992 10.449999 -3.344909 -8.594270 31.052914 -1.464227 2.679680 -14.010034 -0.524300 4.640200 -12.885200 8.863671 1.770182 18.236255 1.058095 4.793341 -2.611886 -0.946059 4.039627 3.306273 -0.431963 -5.741294 -9.544543 -0.321340 -4.987725 -1.949483 3.303700 -1.101000 -0.524400 0.503113 2.941961 0.980283 -81.069320 5.808663 11.146076 85.148694 -65.600393 -50.993462 1.885839 -0.251261 126.124987 31.919579 18.696343 10.385300 -7.125000 0.000000 0.000000 5.027500 49.312300 0.535800 1.221813 1.864332 3.318830 78.144501 -18.794508 35.883394 -95.780806 59.021049 -48.475413 1.501598 -1.510857 93.199500 0.885252 2.105658 -0.004900 7.125000 0.000000 0.000000 20.062800 -29.131800 8.224300 
-0.392756 17.156033 -2.078882 -171.579310 27.678542 171.208292 -1.910865 2.276607 1.724984 5.147971 -6.868612 -15.430684 3.009492 11.152247 32.307462 -0.049824 3.214434 8.089863 2.943600 -10.603300 -30.953200 -0.590626 -4.226958 1.546577 23.728969 -5.232107 10.089384 -3.359646 -8.620034 31.143716 -1.468547 2.774113 -13.859349 -0.501500 4.540000 -12.601000 8.925343 1.711967 18.288160 1.064180 4.739075 -2.592825 -0.993144 4.025282 3.357626 -0.269407 -5.642163 -9.518233 -0.368250 -4.875824 -1.918858 3.234700 -1.060300 -0.535100 0.526878 2.954768 1.001549 -81.417164 6.108382 12.315526 85.866220 -65.643682 -51.369774 1.951243 -0.311146 126.484707 32.618356 18.632682 10.545000 -7.125000 0.000000 0.000000 5.749400 49.217700 0.599800 1.212829 1.847815 3.309645 78.338300 -18.482514 36.034883 -96.055739 58.963851 -48.642028 1.473062 -1.577136 92.350236 0.723021 1.719442 -0.002500 7.125000 0.000000 0.000000 19.939900 -29.458200 8.001900 
-0.385479 17.172535 -1.968394 -171.585214 27.814220 171.224249 -1.906866 2.267337 1.720057 4.887447 -5.444597 -16.000470 3.328466 11.631583 33.919785 -0.050857 3.035530 7.343654 2.752600 -10.283400 -29.899300 -0.590494 -4.215902 1.535448 23.983036 -5.091466 9.718642 -3.383300 -8.660587 31.283866 -1.459270 2.809868 -13.692940 -0.468000 4.387900 -12.170700 8.963478 1.647072 18.323545 1.073750 4.670333 -2.579890 -1.001817 3.997479 3.388408 -0.166542 -5.533966 -9.477200 -0.393494 -4.751541 -1.874263 3.193600 -1.013200 -0.537400 0.548332 2.960874 1.022383 -81.755048 6.391905 13.424073 86.270570 -65.702829 -51.517828 1.999298 -0.370178 126.850680 33.227041 18.465560 10.612400 -7.125000 0.000000 0.000000 6.372800 49.009600 0.632500 1.203586 1.831267 3.298023 78.481896 -18.206619 36.193460 -96.351426 58.888478 -48.859631 1.463450 -1.643075 91.563797 0.669651 1.342319 0.002700 7.125000 0.000000 0.000000 19.902600 -29.790100 7.816500 
-0.380457 17.187192 -1.859751 -171.613518 27.944241 171.208288 -1.907896 2.262946 1.715571 4.599481 -4.207522 -16.451413 3.669251 12.109234 35.577330 -0.032601 2.792642 6.723641 2.816700 -10.392200 -30.256500 -0.589266 -4.204660 1.528060 24.238963 -4.860500 9.394386 -3.413767 -8.713305 31.461699 -1.440809 2.800939 -13.527446 -0.437200 4.243100 -11.761600 8.997608 1.594457 18.389008 1.079545 4.618736 -2.569397 -1.028364 3.977391 3.391215 -0.067057 -5.442103 -9.399061 -0.411176 -4.644806 -1.842122 3.158700 -0.973600 -0.552800 0.568975 2.964333 1.043347 -82.044759 6.649409 14.555518 86.440431 -65.778800 -51.489821 2.034467 -0.428674 127.265412 33.711795 18.235830 10.596700 -7.125000 0.000000 0.000000 6.863000 48.725200 0.633300 1.188174 1.820599 3.289504 78.723887 -17.941903 36.136348 -96.570733 58.834273 -49.013385 1.446210 -1.690931 91.048865 0.540079 1.099601 0.007400 7.125000 0.000000 0.000000 19.800800 -29.995600 7.667900 
-0.376562 17.201951 -1.753260 -171.636622 28.068749 171.227592 -1.915650 2.260920 1.712988 4.315625 -3.176537 -16.827001 4.024699 12.574682 37.247956 0.014106 2.435865 6.272951 2.954700 -10.621300 -31.013100 -0.588758 -4.191939 1.524525 24.532878 -4.548518 9.051494 -3.448141 -8.771564 31.659535 -1.401587 2.681467 -13.379868 -0.413200 4.126300 -11.432200 9.003526 1.536979 18.421747 1.094272 4.552901 -2.571924 -0.983206 3.937878 3.340369 -0.051904 -5.336072 -9.252984 -0.414237 -4.518790 -1.794419 3.152500 -0.927100 -0.571500 0.587915 2.953441 1.064124 -82.359674 6.947862 15.612354 86.422261 -65.870924 -51.324086 2.058137 -0.486211 127.689789 34.119635 17.923950 10.500900 -7.125000 0.000000 0.000000 7.266600 48.346300 0.602800 1.176370 1.815662 3.276952 78.918935 -17.799226 36.041123 -96.862531 58.743122 -49.276123 1.438332 -1.733838 90.757508 0.470333 0.883447 0.012500 7.125000 0.000000 0.000000 19.749800 -30.188100 7.548700 
-0.374410 17.219375 -1.648203 -171.671181 28.185108 171.239811 -1.928249 2.261827 1.714264 4.014640 -2.356145 -17.075980 4.388737 13.018555 38.907157 0.090435 1.944533 5.984586 3.157800 -10.946300 -32.098800 -0.586042 -4.179249 1.525996 24.845391 -4.142918 8.737823 -3.483444 -8.831927 31.862834 -1.349668 2.492029 -13.251173 -0.384200 3.980500 -11.021700 9.011055 1.488793 18.478143 1.103406 4.495681 -2.583943 -0.972495 3.900911 3.241265 -0.006406 -5.230828 -9.098274 -0.419975 -4.399668 -1.735795 3.137600 -0.886900 -0.582600 0.602842 2.932020 1.080554 -82.592365 7.262752 16.717336 86.266835 -65.971834 -51.054890 2.073509 -0.539741 128.144305 34.368726 17.603453 10.344600 -7.125000 0.000000 0.000000 7.505400 47.947400 0.548700 1.164670 1.818309 3.262344 79.114096 -17.712498 35.880411 -97.171439 58.638501 -49.575272 1.435918 -1.766208 90.653147 0.428256 0.735307 0.016600 7.125000 0.000000 0.000000 19.719900 -30.325200 7.466900 
-0.371643 17.236901 -1.546017 -171.766027 28.307145 171.233730 -1.947446 2.266016 1.718194 3.657227 -1.598759 -17.247093 4.753124 13.436561 40.532453 0.207628 1.241177 5.836139 3.405600 -11.324400 -33.381700 -0.583322 -4.166280 1.525921 25.089266 -3.733870 8.424094 -3.516241 -8.891044 32.055483 -1.301304 2.321515 -13.117934 -0.363400 3.872200 -10.717500 8.929673 1.457129 18.504249 1.116697 4.445558 -2.595821 -0.879173 3.858448 3.153095 -0.021974 -5.121353 -8.955799 -0.429516 -4.276165 -1.662043 3.131800 -0.845600 -0.581900 0.620174 2.905812 1.099147 -82.861686 7.551192 17.768231 85.941673 -66.091195 -50.659350 2.080001 -0.589818 128.645538 34.543479 17.255950 10.148300 -7.125000 0.000000 0.000000 7.665400 47.519500 0.479200 1.159081 1.815756 3.243455 79.246260 -17.665076 35.694022 -97.522549 58.509312 -49.955280 1.441468 -1.795533 90.737413 0.444708 0.595999 0.020200 7.125000 0.000000 0.000000 19.741200 -30.464600 7.405600 
